<?xml version="1.0" encoding="utf-8"?>
<!-- Generator: Adobe Illustrator 23.0.4, SVG Export Plug-In . SVG Version: 6.00 Build 0)  -->
<svg version="1.1" id="Capa_1" xmlns="http://www.w3.org/2000/svg" xmlns:xlink="http://www.w3.org/1999/xlink" x="0px" y="0px"
	 viewBox="0 0 146 98" style="enable-background:new 0 0 146 98;" xml:space="preserve">
<style type="text/css">
	.st0{fill:#0070CE;}
	.st1{fill:#FFFFFF;}
</style>
<g>
	<path class="st0" d="M132.36,98H13.64C6.11,98,0,91.89,0,84.36V13.64C0,6.11,6.11,0,13.64,0h118.73C139.89,0,146,6.11,146,13.64
		v70.73C146,91.89,139.89,98,132.36,98z"/>
	<g>
		<polygon class="st1" points="23.83,38.54 27.97,38.54 25.9,33.26 		"/>
		<polygon class="st1" points="45.89,56.26 45.89,58.71 52.87,58.71 52.87,61.35 45.89,61.35 45.89,64.18 53.62,64.18 57.2,60.22 
			53.81,56.26 		"/>
		<polygon class="st1" points="100.38,33.26 98.12,38.54 102.46,38.54 		"/>
		<polygon class="st1" points="66.06,65.69 66.06,54.94 61.16,60.22 		"/>
		<path class="st1" d="M75.3,57.96c-0.19-1.13-0.94-1.7-2.08-1.7h-3.96v3.39h4.15C74.55,59.65,75.3,59.09,75.3,57.96z"/>
		<path class="st1" d="M88.5,59.28c0.38-0.19,0.57-0.76,0.57-1.32c0.19-0.75-0.19-1.13-0.57-1.32c-0.38-0.19-0.94-0.19-1.51-0.19
			h-3.77v3.02h3.77C87.56,59.47,88.12,59.47,88.5,59.28z"/>
		<path class="st1" d="M115.65,28.35v2.26l-1.13-2.26h-8.86v2.26l-1.13-2.26H92.46c-2.07,0-3.77,0.38-5.28,1.13v-1.13H78.7v0.19
			v0.94c-0.94-0.75-2.07-1.13-3.58-1.13H44.76l-2.08,4.71l-2.07-4.71h-6.79h-2.83v2.26l-0.94-2.26h-0.19h-8.11l-3.77,8.86
			l-4.34,9.62l-0.08,0.19h0.08h9.62h0.12l0.07-0.19L24.58,44h2.45l1.13,3.02H39.1v-0.19v-2.07l0.94,2.26h5.47l0.94-2.26v2.07v0.19
			h4.34h21.68h0.19v-4.9h0.38c0.38,0,0.38,0,0.38,0.57v4.15h13.58V45.7c1.13,0.57,2.83,1.13,5.09,1.13h5.66l1.13-3.02h2.64
			l1.13,3.02h10.94v-1.89V44l1.7,2.83h0.38h0.19h8.3V28.35H115.65L115.65,28.35L115.65,28.35z M51.73,44.19h-1.89h-1.13v-1.13v-9.24
			l-0.19,0.43v-0.01l-4.39,9.94H44h-1.01h-1.63l-4.53-10.37v10.37h-6.41l-1.32-2.83h-6.41l-1.32,2.83h-3.31l5.58-13.2h4.71
			l5.28,12.63V30.99h1.13h3.86l0.09,0.19h0.01l2.38,5.18l1.71,3.88l0.06-0.2l3.77-9.05h5.09L51.73,44.19L51.73,44.19L51.73,44.19z
			 M64.74,33.82h-7.35v2.45h7.17v2.64h-7.17v2.64h7.35v2.83H54.18V30.99h10.56V33.82L64.74,33.82z M78.19,38.68
			c0,0,0.01,0.01,0.02,0.01c0.07,0.08,0.13,0.15,0.18,0.22c0.36,0.47,0.65,1.18,0.67,2.21c0,0.02,0,0.04,0,0.05
			c0,0.01,0,0.02,0,0.03c0,0.01,0,0.01,0,0.02c0,0.1,0.01,0.21,0.01,0.32v2.64h-2.83v-1.51c0-0.75,0-1.89-0.57-2.64
			c-0.18-0.18-0.36-0.3-0.55-0.38c-0.28-0.18-0.82-0.19-1.71-0.19h-3.4v4.71h-3.2v-13.2h7.17c1.7,0,2.83,0,3.77,0.57
			c0.92,0.55,1.48,1.47,1.5,2.93c-0.04,2.01-1.33,3.11-2.26,3.48C77,37.97,77.63,38.1,78.19,38.68z M84.54,44.19h-3.21v-13.2h3.21
			V44.19z M121.31,44.19h-4.15l-6.03-9.99v8.3l-0.02-0.02v1.73h-3.19v-0.01h-3.21l-1.13-2.83h-6.6l-1.13,3.02h-3.58
			c-1.51,0-3.39-0.38-4.53-1.51c-1.13-1.13-1.7-2.64-1.7-5.09c0-1.89,0.38-3.77,1.7-5.28c0.94-1.13,2.64-1.51,4.71-1.51h3.02v2.83
			h-3.02c-1.13,0-1.7,0.19-2.45,0.75c-0.56,0.57-0.94,1.7-0.94,3.02c0,1.51,0.19,2.45,0.94,3.21c0.57,0.57,1.32,0.76,2.26,0.76h1.32
			l4.34-10.37h1.89h2.83l5.28,12.63v-0.64v-4.26v-0.38v-7.35h4.71l5.47,9.24v-9.24h3.21L121.31,44.19L121.31,44.19L121.31,44.19
			L121.31,44.19z"/>
		<path class="st1" d="M75.5,36.49c0.06-0.06,0.1-0.13,0.15-0.2c0.17-0.27,0.37-0.76,0.26-1.42c0-0.06-0.02-0.12-0.03-0.17
			c0-0.02,0-0.03-0.01-0.04l0,0c-0.09-0.32-0.33-0.52-0.57-0.64c-0.38-0.19-0.94-0.19-1.51-0.19h-3.77v3.02h3.77
			c0.57,0,1.13,0,1.51-0.19c0.06-0.03,0.11-0.07,0.16-0.11l0,0C75.46,36.54,75.48,36.52,75.5,36.49z"/>
		<path class="st1" d="M132.44,63.05c0-1.32-0.38-2.64-0.94-3.58v-8.48h-0.01v-0.57c0,0-7.9,0-9.08,0c-1.18,0-2.6,1.13-2.6,1.13
			v-1.13h-8.67c-1.32,0-3.02,0.38-3.77,1.13v-1.13H91.9v0.57v0.56c-1.13-0.94-3.21-1.13-4.15-1.13H77.57v0.57v0.56
			c-0.94-0.94-3.21-1.13-4.34-1.13H61.92l-2.64,2.83l-2.45-2.83h-0.79h-1.28h-14.9v0.57v1.49v16.99h16.59l2.73-2.73l2.36,2.73h0.19
			h9.56h0.43h0.19h0.19v-1.89v-2.45h0.94c1.32,0,3.02,0,4.34-0.57v4.71v0.38h8.49v-0.38v-4.52h0.38c0.57,0,0.57,0,0.57,0.57v3.96
			v0.38h25.64c1.7,0,3.39-0.38,4.34-1.13v0.75v0.38h8.11c1.7,0,3.39-0.19,4.53-0.94c1.74-1.04,2.83-2.89,2.99-5.08
			c0.01-0.07,0.02-0.13,0.02-0.2l-0.01-0.01C132.43,63.29,132.44,63.17,132.44,63.05z M73.04,61.92h-3.77v0.56v1.13v1.13v2.07h-6.2
			l-3.61-4.15l-0.01,0.01l-0.18-0.2l-4.15,4.34H43.06v-13.2h12.26l3.35,3.67l0.7,0.77l0.1-0.1l3.96-4.34h9.99
			c1.94,0,4.11,0.48,4.93,2.45c0.1,0.39,0.16,0.83,0.16,1.32C78.51,61.16,75.87,61.92,73.04,61.92z M91.9,61.73
			c0.38,0.56,0.57,1.32,0.57,2.45v2.64h-3.2v-1.7c0-0.76,0-2.07-0.57-2.64c-0.38-0.56-1.13-0.56-2.26-0.56h-3.39v4.9h-3.21V53.43
			h7.16c1.51,0,2.83,0,3.77,0.57c0.94,0.57,1.7,1.51,1.7,3.02c0,2.07-1.32,3.2-2.26,3.58C91.14,60.97,91.71,61.35,91.9,61.73z
			 M104.91,56.26h-7.35v2.45h7.17v2.64h-7.17v2.64h7.35v2.83H94.35V53.43h10.56V56.26z M112.83,66.82h-6.03v-2.83h6.03
			c0.56,0,0.94,0,1.32-0.38c0.19-0.19,0.38-0.57,0.38-0.94c0-0.38-0.19-0.75-0.38-0.94c-0.19-0.19-0.57-0.38-1.13-0.38
			c-3.02-0.19-6.6,0-6.6-4.15c0-1.89,1.13-3.96,4.53-3.96h6.22v3.2h-5.84c-0.57,0-0.94,0-1.32,0.19c-0.38,0.19-0.38,0.57-0.38,0.94
			c0,0.57,0.38,0.75,0.75,0.94c0.38,0.19,0.75,0.19,1.13,0.19h1.7c1.7,0,2.83,0.38,3.58,1.13c0.57,0.57,0.94,1.51,0.94,2.83
			C117.73,65.5,116.03,66.82,112.83,66.82z M129.04,65.5c-0.75,0.76-2.07,1.32-3.96,1.32h-6.03v-2.83h6.03c0.57,0,0.94,0,1.32-0.38
			c0.19-0.19,0.38-0.57,0.38-0.94c0-0.38-0.19-0.75-0.38-0.94c-0.19-0.19-0.57-0.38-1.13-0.38c-3.02-0.19-6.6,0-6.6-4.15
			c0-1.79,1.03-3.41,3.55-3.89c0.3-0.04,0.62-0.07,0.97-0.07h6.22v3.2h-4.15h-1.51h-0.19c-0.57,0-0.94,0-1.32,0.19
			c-0.19,0.19-0.38,0.57-0.38,0.94c0,0.57,0.19,0.75,0.76,0.94c0.38,0.19,0.75,0.19,1.13,0.19h0.19h1.51c0.82,0,1.45,0.1,2.02,0.3
			c0.52,0.19,2.25,0.96,2.64,2.98c0.03,0.21,0.06,0.43,0.06,0.68C130.17,63.8,129.8,64.74,129.04,65.5z"/>
	</g>
</g>
</svg>
