<?xml version="1.0" encoding="utf-8"?>
<!-- Generator: Adobe Illustrator 23.0.6, SVG Export Plug-In . SVG Version: 6.00 Build 0)  -->
<svg version="1.1" id="Capa_1" xmlns="http://www.w3.org/2000/svg" xmlns:xlink="http://www.w3.org/1999/xlink" x="0px" y="0px"
	 viewBox="0 0 87.18 68.44" style="enable-background:new 0 0 87.18 68.44;" xml:space="preserve">
<style type="text/css">
	.st0{fill:#00D408;}
</style>
<g>
	<path class="st0" d="M45.26,42.09c0-0.71-0.57-1.28-1.28-1.28H10.81c-0.71,0-1.28,0.57-1.28,1.28c0,0.71,0.57,1.28,1.28,1.28h33.17
		C44.68,43.37,45.26,42.8,45.26,42.09L45.26,42.09z M45.26,42.09"/>
	<path class="st0" d="M10.81,47.01c-0.71,0-1.28,0.57-1.28,1.28c0,0.71,0.57,1.28,1.28,1.28h22.1c0.71,0,1.28-0.57,1.28-1.28
		c0-0.71-0.57-1.28-1.28-1.28H10.81z M10.81,47.01"/>
	<path class="st0" d="M69.31,0c-4.22,0-8.32,1.5-11.54,4.23c-0.54,0.46-0.61,1.26-0.15,1.8c0.46,0.54,1.27,0.61,1.81,0.15
		c2.76-2.33,6.27-3.62,9.89-3.62c8.44,0,15.31,6.87,15.31,15.31c0,8.44-6.87,15.31-15.31,15.31C60.86,33.19,54,26.32,54,17.87
		c0-2.61,0.67-5.19,1.94-7.46c0.34-0.62,0.12-1.4-0.49-1.74c-0.62-0.35-1.4-0.12-1.74,0.49c-1.13,2.03-1.86,4.27-2.13,6.58H4.16
		C1.87,15.74,0,17.61,0,19.9v44.38c0,2.29,1.87,4.16,4.16,4.16h9.03c0.71,0,1.28-0.57,1.28-1.28s-0.57-1.28-1.28-1.28H4.16
		c-0.88,0-1.6-0.72-1.6-1.6v-6.51h71.88v6.51c0,0.88-0.72,1.6-1.6,1.6H19.04c-0.71,0-1.28,0.57-1.28,1.28
		c0,0.71,0.57,1.28,1.28,1.28l53.81,0c2.29,0,4.16-1.87,4.16-4.16V48.4c0-0.71-0.57-1.28-1.28-1.28c-0.71,0-1.28,0.57-1.28,1.28
		v6.81H2.56V19.9c0-0.88,0.72-1.6,1.6-1.6h47.28c0.23,9.66,8.16,17.45,17.87,17.45c1.79,0,3.51-0.26,5.14-0.75v7.48
		c0,0.71,0.57,1.28,1.28,1.28c0.71,0,1.28-0.57,1.28-1.28v-8.47c6.01-2.88,10.18-9.03,10.18-16.13C87.18,8.02,79.16,0,69.31,0
		L69.31,0z M69.31,0"/>
	<path class="st0" d="M63.12,25.82c0.93,0.98,2.24,1.53,3.59,1.53c0.02,0,0.05,0,0.07,0c1.37-0.02,2.69-0.61,3.62-1.64l8.81-9.85
		c0.8-0.89,1.21-2.03,1.15-3.22c-0.06-1.19-0.58-2.29-1.47-3.09c-0.89-0.8-2.03-1.2-3.22-1.14c-1.19,0.06-2.29,0.58-3.09,1.48
		l-6.02,6.79l-0.57-0.62c-1.63-1.81-4.43-1.96-6.24-0.32c-0.9,0.81-1.41,1.92-1.46,3.12c-0.04,1.2,0.39,2.35,1.23,3.23L63.12,25.82z
		 M61.44,17.63c0.35-0.32,0.8-0.48,1.24-0.48c0.51,0,1.02,0.21,1.4,0.62l0.71,0.77c0.45,0.5,1.09,0.78,1.76,0.78
		s1.31-0.29,1.77-0.79l6.16-6.95c0.34-0.38,0.81-0.6,1.32-0.63c0.51-0.03,1,0.15,1.37,0.49c0.38,0.34,0.6,0.81,0.63,1.32
		c0.03,0.51-0.15,1-0.49,1.38L68.49,24c-0.45,0.5-1.07,0.78-1.75,0.79c-0.68,0.01-1.3-0.25-1.77-0.75l-3.63-3.74
		c-0.35-0.37-0.53-0.85-0.51-1.35C60.84,18.43,61.06,17.97,61.44,17.63L61.44,17.63z M61.44,17.63"/>
</g>
</svg>
