<?xml version="1.0" encoding="utf-8"?>
<!-- Generator: Adobe Illustrator 23.0.4, SVG Export Plug-In . SVG Version: 6.00 Build 0)  -->
<svg version="1.1" id="Capa_1" xmlns="http://www.w3.org/2000/svg" xmlns:xlink="http://www.w3.org/1999/xlink" x="0px" y="0px"
	 viewBox="0 0 146 98" style="enable-background:new 0 0 146 98;" xml:space="preserve">
<style type="text/css">
	.st0{fill:#FFFFFF;}
	.st1{fill:#FF4F00;}
	.st2{fill:#FF0000;}
	.st3{fill:#FF9800;}
</style>
<g>
	<path class="st0" d="M132.36,98H13.64C6.11,98,0,91.89,0,84.36V13.64C0,6.11,6.11,0,13.64,0h118.73C139.89,0,146,6.11,146,13.64
		v70.73C146,91.89,139.89,98,132.36,98z"/>
	<g>
		<rect x="59.86" y="27.53" class="st1" width="26.28" height="42.93"/>
		<path class="st2" d="M62.57,49C62.56,40.63,66.41,32.71,73,27.54c-11.85-9.32-29.02-7.26-38.33,4.6s-7.26,29.02,4.6,38.33
			c9.9,7.78,23.84,7.78,33.74,0C66.41,65.3,62.56,57.38,62.57,49z"/>
		<path class="st3" d="M114.56,65.92v-0.88h0.38v-0.18h-0.9v0.18h0.36v0.88H114.56z M116.32,65.92v-1.06h-0.27l-0.32,0.76
			l-0.32-0.76h-0.27v1.06h0.2v-0.8l0.3,0.69h0.2l0.3-0.69v0.8H116.32z"/>
		<path class="st3" d="M117.17,49c0,15.08-12.22,27.3-27.3,27.3c-6.12,0-12.06-2.06-16.87-5.84c11.85-9.32,13.91-26.48,4.6-38.33
			c-1.34-1.71-2.89-3.25-4.6-4.6c11.85-9.32,29.02-7.26,38.33,4.59C115.12,36.93,117.17,42.87,117.17,49L117.17,49z"/>
	</g>
</g>
</svg>
