<?xml version="1.0" encoding="utf-8"?>
<!-- Generator: Adobe Illustrator 23.0.6, SVG Export Plug-In . SVG Version: 6.00 Build 0)  -->
<svg version="1.1" id="Capa_1" xmlns="http://www.w3.org/2000/svg" xmlns:xlink="http://www.w3.org/1999/xlink" x="0px" y="0px"
	 viewBox="0 0 21.76 21.76" style="enable-background:new 0 0 21.76 21.76;" xml:space="preserve">
<style type="text/css">
	.st0{fill:#2C3143;}
</style>
<g>
	<g>
		<path class="st0" d="M20.56,8.39h-2.02c-0.28,0-0.52-0.16-0.63-0.42c-0.11-0.26-0.05-0.54,0.15-0.74l1.43-1.43
			c0.23-0.23,0.35-0.53,0.35-0.85c0-0.32-0.13-0.62-0.35-0.85l-1.82-1.82c-0.22-0.22-0.53-0.34-0.85-0.34
			c-0.32,0-0.63,0.13-0.85,0.34L14.53,3.7c-0.13,0.13-0.3,0.2-0.47,0.2c-0.09,0-0.18-0.02-0.27-0.06c-0.26-0.11-0.42-0.34-0.42-0.63
			V1.21c0-0.67-0.54-1.21-1.21-1.21H9.59C8.93,0,8.39,0.54,8.39,1.21v2.02c0,0.28-0.16,0.52-0.42,0.63C7.88,3.89,7.79,3.91,7.7,3.91
			c-0.18,0-0.34-0.07-0.47-0.2L5.8,2.28C5.58,2.06,5.27,1.93,4.95,1.93c-0.32,0-0.64,0.13-0.85,0.34L2.28,4.1
			C2.05,4.32,1.92,4.63,1.92,4.95c0,0.32,0.13,0.62,0.35,0.85L3.7,7.23c0.2,0.2,0.26,0.48,0.15,0.74C3.74,8.23,3.51,8.39,3.22,8.39
			H1.21C0.54,8.39,0,8.93,0,9.59v2.57c0,0.66,0.54,1.21,1.21,1.21h2.02c0.28,0,0.52,0.16,0.63,0.42c0.11,0.26,0.05,0.54-0.15,0.74
			l-1.43,1.43c-0.23,0.23-0.35,0.53-0.35,0.85c0,0.32,0.13,0.62,0.35,0.85l1.82,1.82c0.22,0.22,0.53,0.34,0.85,0.34
			c0.32,0,0.63-0.13,0.85-0.34l1.43-1.43c0.13-0.13,0.3-0.2,0.47-0.2c0.09,0,0.18,0.02,0.27,0.06c0.26,0.11,0.42,0.34,0.42,0.63
			v2.02c0,0.66,0.54,1.21,1.21,1.21h2.57c0.66,0,1.21-0.54,1.21-1.21v-2.02c0-0.28,0.16-0.52,0.42-0.63
			c0.09-0.04,0.18-0.06,0.27-0.06c0.18,0,0.34,0.07,0.47,0.2l1.43,1.43c0.22,0.22,0.53,0.34,0.85,0.34c0.32,0,0.64-0.12,0.85-0.34
			l1.82-1.82c0.23-0.23,0.35-0.53,0.35-0.85c0-0.32-0.13-0.62-0.35-0.85l-1.43-1.43c-0.2-0.2-0.26-0.48-0.15-0.74
			c0.11-0.26,0.34-0.42,0.63-0.42h2.02c0.66,0,1.21-0.54,1.21-1.21V9.59C21.76,8.93,21.22,8.39,20.56,8.39z M20.77,12.17
			c0,0.12-0.1,0.22-0.22,0.22h-2.02c-0.69,0-1.28,0.4-1.54,1.03c-0.26,0.64-0.12,1.33,0.36,1.82l1.43,1.43
			c0.04,0.04,0.06,0.1,0.06,0.15c0,0.06-0.02,0.11-0.06,0.15l-1.82,1.82c-0.04,0.04-0.1,0.06-0.15,0.06c-0.06,0-0.11-0.02-0.15-0.06
			l-1.43-1.43c-0.32-0.32-0.73-0.49-1.17-0.49c-0.22,0-0.44,0.04-0.65,0.13c-0.64,0.26-1.03,0.85-1.03,1.54v2.02
			c0,0.12-0.1,0.22-0.22,0.22H9.59c-0.12,0-0.22-0.1-0.22-0.22v-2.02c0-0.69-0.39-1.28-1.03-1.54c-0.21-0.09-0.43-0.13-0.65-0.13
			c-0.44,0-0.85,0.17-1.17,0.49L5.1,18.78c-0.04,0.04-0.1,0.06-0.15,0.06s-0.11-0.02-0.15-0.06l-1.82-1.82
			c-0.04-0.04-0.06-0.1-0.06-0.15c0-0.06,0.02-0.11,0.06-0.15l1.43-1.43c0.49-0.49,0.63-1.18,0.36-1.82
			c-0.26-0.64-0.85-1.03-1.54-1.03H1.21c-0.12,0-0.22-0.1-0.22-0.22V9.59c0-0.12,0.1-0.22,0.22-0.22h2.02
			c0.69,0,1.28-0.39,1.54-1.03C5.03,7.71,4.89,7.02,4.4,6.53L2.98,5.1c-0.04-0.04-0.06-0.1-0.06-0.15c0-0.06,0.02-0.11,0.06-0.15
			L4.8,2.98c0.04-0.04,0.1-0.06,0.15-0.06S5.06,2.94,5.1,2.98L6.53,4.4C6.85,4.72,7.26,4.9,7.7,4.9c0.22,0,0.44-0.04,0.65-0.13
			C8.98,4.5,9.38,3.91,9.38,3.22V1.21c0-0.12,0.1-0.22,0.22-0.22h2.57c0.12,0,0.22,0.1,0.22,0.22v2.02c0,0.69,0.39,1.28,1.03,1.54
			c0.21,0.09,0.43,0.13,0.65,0.13c0.44,0,0.85-0.18,1.17-0.49l1.43-1.43c0.04-0.04,0.1-0.06,0.15-0.06c0.06,0,0.11,0.02,0.15,0.06
			l1.82,1.82c0.04,0.04,0.06,0.1,0.06,0.15c0,0.06-0.02,0.11-0.06,0.15l-1.43,1.43C16.87,7.02,16.73,7.71,17,8.35
			c0.26,0.64,0.85,1.03,1.54,1.03h2.02c0.12,0,0.22,0.1,0.22,0.22V12.17z M10.88,7.19c-2.03,0-3.69,1.66-3.69,3.69
			c0,2.03,1.66,3.69,3.69,3.69c2.03,0,3.69-1.66,3.69-3.69C14.57,8.85,12.92,7.19,10.88,7.19z M10.88,13.58
			c-1.49,0-2.7-1.21-2.7-2.7c0-1.49,1.21-2.7,2.7-2.7s2.7,1.21,2.7,2.7C13.58,12.37,12.37,13.58,10.88,13.58z"/>
	</g>
</g>
</svg>
