<?xml version="1.0" encoding="utf-8"?>
<!-- Generator: Adobe Illustrator 23.0.6, SVG Export Plug-In . SVG Version: 6.00 Build 0)  -->
<svg version="1.1" id="Capa_1" xmlns="http://www.w3.org/2000/svg" xmlns:xlink="http://www.w3.org/1999/xlink" x="0px" y="0px"
	 viewBox="0 0 21.55 29.74" style="enable-background:new 0 0 21.55 29.74;" xml:space="preserve">
<style type="text/css">
	.st0{fill:#2C3143;}
</style>
<g>
	<g>
		<path class="st0" d="M20.95,0H0.59C0.27,0,0,0.27,0,0.59v28.55c0,0.33,0.27,0.59,0.59,0.59h15.48c0.16,0,0.31-0.06,0.42-0.17
			l4.88-4.88c0.11-0.11,0.17-0.26,0.17-0.42V0.59C21.55,0.27,21.28,0,20.95,0z M16.67,27.72l0-2.86l2.86,0L16.67,27.72z
			 M20.36,23.67l-4.29,0c0,0,0,0,0,0c-0.16,0-0.31,0.06-0.42,0.17c-0.11,0.11-0.17,0.26-0.17,0.42l0,4.29H1.18V1.18h19.18V23.67z
			 M4.19,7.98C4.3,8.09,4.45,8.16,4.6,8.16s0.31-0.06,0.42-0.17l2.16-2.16c0.23-0.23,0.23-0.61,0-0.84c-0.23-0.23-0.61-0.23-0.84,0
			L4.6,6.73L4.17,6.29c-0.23-0.23-0.61-0.23-0.84,0C3.1,6.52,3.1,6.9,3.33,7.13L4.19,7.98z M17.59,7.35h0.21
			c0.33,0,0.59-0.27,0.59-0.59c0-0.33-0.27-0.59-0.59-0.59h-0.21c-0.33,0-0.59,0.27-0.59,0.59C16.99,7.08,17.26,7.35,17.59,7.35z
			 M9.06,7.35h6.63c0.33,0,0.59-0.27,0.59-0.59c0-0.33-0.27-0.59-0.59-0.59H9.06c-0.33,0-0.59,0.27-0.59,0.59
			C8.46,7.08,8.73,7.35,9.06,7.35z M4.19,13.72c0.11,0.11,0.26,0.17,0.42,0.17s0.31-0.06,0.42-0.17l2.16-2.16
			c0.23-0.23,0.23-0.61,0-0.84c-0.23-0.23-0.61-0.23-0.84,0L4.6,12.46l-0.43-0.43c-0.23-0.23-0.61-0.23-0.84,0
			c-0.23,0.23-0.23,0.61,0,0.84L4.19,13.72z M9.06,13.08h8.74c0.33,0,0.59-0.27,0.59-0.59s-0.27-0.59-0.59-0.59H9.06
			c-0.33,0-0.59,0.27-0.59,0.59S8.73,13.08,9.06,13.08z M4.19,19.43c0.11,0.11,0.26,0.17,0.42,0.17s0.31-0.06,0.42-0.17l2.16-2.16
			c0.23-0.23,0.23-0.61,0-0.84c-0.23-0.23-0.61-0.23-0.84,0L4.6,18.18l-0.43-0.43c-0.23-0.23-0.61-0.23-0.84,0
			c-0.23,0.23-0.23,0.61,0,0.84L4.19,19.43z M9.06,18.8h8.74c0.33,0,0.59-0.27,0.59-0.59c0-0.33-0.27-0.59-0.59-0.59H9.06
			c-0.33,0-0.59,0.27-0.59,0.59C8.46,18.54,8.73,18.8,9.06,18.8z"/>
	</g>
</g>
</svg>
