<?xml version="1.0" encoding="utf-8"?>
<!-- Generator: Adobe Illustrator 23.0.6, SVG Export Plug-In . SVG Version: 6.00 Build 0)  -->
<svg version="1.1" id="Capa_1" xmlns="http://www.w3.org/2000/svg" xmlns:xlink="http://www.w3.org/1999/xlink" x="0px" y="0px"
	 viewBox="0 0 21.67 21.68" style="enable-background:new 0 0 21.67 21.68;" xml:space="preserve">
<style type="text/css">
	.st0{fill:#2C3143;}
</style>
<g>
	<g>
		<path class="st0" d="M14.22,14.23c-0.23,0-0.42,0.19-0.42,0.42c0,0.23,0.19,0.42,0.42,0.42c0.23,0,0.42-0.19,0.42-0.42
			C14.64,14.41,14.45,14.23,14.22,14.23z M8.46,13.8c-0.23,0-0.42-0.19-0.42-0.42c0-0.23,0.19-0.42,0.42-0.42
			c0.15,0,0.31,0.08,0.46,0.22c0.17,0.16,0.44,0.16,0.6-0.01c0.16-0.17,0.16-0.44-0.01-0.6c-0.21-0.21-0.43-0.33-0.62-0.39v-0.49
			c0-0.23-0.19-0.42-0.42-0.42c-0.23,0-0.42,0.19-0.42,0.42v0.5c-0.49,0.17-0.85,0.65-0.85,1.2c0,0.7,0.57,1.27,1.27,1.27
			c0.23,0,0.42,0.19,0.42,0.42S8.7,15.5,8.46,15.5c-0.18,0-0.38-0.11-0.55-0.32c-0.15-0.18-0.42-0.2-0.6-0.05
			c-0.18,0.15-0.2,0.42-0.05,0.6c0.23,0.27,0.49,0.46,0.77,0.55v0.49c0,0.23,0.19,0.42,0.42,0.42c0.23,0,0.42-0.19,0.42-0.42v-0.5
			c0.49-0.17,0.85-0.65,0.85-1.2C9.73,14.37,9.16,13.8,8.46,13.8z M5.08,4.49c-0.23,0-0.42,0.19-0.42,0.42V6.6
			c0,0.23,0.19,0.42,0.42,0.42c0.23,0,0.42-0.19,0.42-0.42V4.91C5.5,4.68,5.31,4.49,5.08,4.49z M19.97,9.99V6.6
			c0-1.17-0.95-2.12-2.12-2.12h-2.37V1.27c0-0.7-0.57-1.27-1.27-1.27H6.35c-0.7,0-1.27,0.57-1.27,1.27v1.52H3.81
			c-0.7,0-1.27,0.57-1.27,1.27v0.42H2.12C0.95,4.49,0,5.44,0,6.6v12.95c0,1.17,0.95,2.12,2.12,2.12h12.95
			c1.02,0,1.88-0.73,2.07-1.69h0.72c1.17,0,2.12-0.95,2.12-2.12v-1.1h0.42c0.7,0,1.27-0.57,1.27-1.27v-3.81
			C21.67,10.75,20.91,9.99,19.97,9.99z M15.49,5.33h2.37c0.7,0,1.27,0.57,1.27,1.27v5.93h-1.95V9.99c0-1.02-0.73-1.88-1.69-2.07
			V5.33z M5.92,1.27c0-0.23,0.19-0.42,0.42-0.42h7.87c0.23,0,0.42,0.19,0.42,0.42v6.6H12.7V4.06c0-0.7-0.57-1.27-1.27-1.27h-5.5
			V1.27z M11.85,4.06v3.81h-1.69V3.64h1.27C11.66,3.64,11.85,3.83,11.85,4.06z M9.31,3.64v4.23H7.62V3.64H9.31z M3.39,4.06
			c0-0.23,0.19-0.42,0.42-0.42h2.96v4.23H3.39V4.06z M2.12,5.33h0.42v2.54H2.21c-0.7,0-1.36-0.51-1.36-1.27
			C0.85,5.9,1.42,5.33,2.12,5.33z M16.33,19.56c0,0.7-0.57,1.27-1.27,1.27H2.12c-0.7,0-1.27-0.57-1.27-1.27V8.27
			C1.22,8.55,1.7,8.72,2.21,8.72h12.86c0.7,0,1.27,0.57,1.27,1.27v2.54h-2.96c-0.7,0-1.27,0.57-1.27,1.27v1.69
			c0,0.7,0.57,1.27,1.27,1.27h2.96V19.56z M19.13,17.87c0,0.7-0.57,1.27-1.27,1.27h-0.68v-2.37h1.95V17.87z M20.82,15.5
			c0,0.23-0.19,0.42-0.42,0.42h-7.02c-0.23,0-0.42-0.19-0.42-0.42V13.8c0-0.23,0.19-0.42,0.42-0.42h6.6c0.3,0,0.59-0.08,0.85-0.23
			V15.5z M19.97,12.53v-1.69c0.47,0,0.85,0.38,0.85,0.85C20.82,12.15,20.44,12.53,19.97,12.53z M17.86,14.23h-1.95
			c-0.23,0-0.42,0.19-0.42,0.42c0,0.23,0.19,0.42,0.42,0.42h1.95c0.23,0,0.42-0.19,0.42-0.42C18.28,14.41,18.09,14.23,17.86,14.23z"
			/>
	</g>
</g>
</svg>
