<?xml version="1.0" encoding="utf-8"?>
<!-- Generator: Adobe Illustrator 23.0.6, SVG Export Plug-In . SVG Version: 6.00 Build 0)  -->
<svg version="1.1" id="Capa_1" xmlns="http://www.w3.org/2000/svg" xmlns:xlink="http://www.w3.org/1999/xlink" x="0px" y="0px"
	 viewBox="0 0 87.18 68.44" style="enable-background:new 0 0 87.18 68.44;" xml:space="preserve">
<style type="text/css">
	.st0{fill:#EE4848;}
</style>
<g>
	<path class="st0" d="M45.26,42.09c0-0.71-0.57-1.28-1.28-1.28H10.81c-0.71,0-1.28,0.57-1.28,1.28c0,0.71,0.57,1.28,1.28,1.28h33.17
		C44.68,43.37,45.26,42.8,45.26,42.09L45.26,42.09z M45.26,42.09"/>
	<path class="st0" d="M10.81,47.01c-0.71,0-1.28,0.57-1.28,1.28c0,0.71,0.57,1.28,1.28,1.28h22.1c0.71,0,1.28-0.57,1.28-1.28
		c0-0.71-0.57-1.28-1.28-1.28H10.81z M10.81,47.01"/>
	<path class="st0" d="M69.31,0c-4.22,0-8.32,1.5-11.54,4.23c-0.54,0.46-0.61,1.26-0.15,1.8c0.46,0.54,1.27,0.61,1.81,0.15
		c2.76-2.33,6.27-3.62,9.89-3.62c8.44,0,15.31,6.87,15.31,15.31c0,8.44-6.87,15.31-15.31,15.31C60.86,33.19,54,26.32,54,17.87
		c0-2.61,0.67-5.19,1.94-7.46c0.34-0.62,0.12-1.4-0.49-1.74c-0.62-0.35-1.4-0.12-1.74,0.49c-1.13,2.03-1.86,4.27-2.13,6.58H4.16
		C1.87,15.74,0,17.61,0,19.9v44.38c0,2.29,1.87,4.16,4.16,4.16h9.03c0.71,0,1.28-0.57,1.28-1.28s-0.57-1.28-1.28-1.28H4.16
		c-0.88,0-1.6-0.72-1.6-1.6v-6.51h71.88v6.51c0,0.88-0.72,1.6-1.6,1.6H19.04c-0.71,0-1.28,0.57-1.28,1.28
		c0,0.71,0.57,1.28,1.28,1.28l53.81,0c2.29,0,4.16-1.87,4.16-4.16V48.4c0-0.71-0.57-1.28-1.28-1.28c-0.71,0-1.28,0.57-1.28,1.28
		v6.81H2.56V19.9c0-0.88,0.72-1.6,1.6-1.6h47.28c0.23,9.66,8.16,17.45,17.87,17.45c1.79,0,3.51-0.26,5.14-0.75v7.48
		c0,0.71,0.57,1.28,1.28,1.28c0.71,0,1.28-0.57,1.28-1.28v-8.47c6.01-2.88,10.18-9.03,10.18-16.13C87.18,8.02,79.16,0,69.31,0
		L69.31,0z M69.31,0"/>
</g>
<g>
	<path class="st0" d="M64.19,12c0.25,0,0.49,0.09,0.68,0.28l4.07,4.07c0.19,0.19,0.43,0.28,0.68,0.28c0.25,0,0.49-0.09,0.68-0.28
		l4.07-4.07C74.55,12.09,74.8,12,75.04,12s0.49,0.09,0.68,0.28c0.37,0.37,0.37,0.98,0,1.36l-4.07,4.07c-0.37,0.37-0.37,0.98,0,1.36
		l4.07,4.07c0.37,0.37,0.37,0.98,0,1.36c-0.19,0.19-0.43,0.28-0.68,0.28s-0.49-0.09-0.68-0.28l-4.07-4.07
		c-0.19-0.19-0.43-0.28-0.68-0.28c-0.25,0-0.49,0.09-0.68,0.28l-4.07,4.07c-0.19,0.19-0.43,0.28-0.68,0.28s-0.49-0.09-0.68-0.28l0,0
		c-0.37-0.37-0.37-0.98,0-1.36l4.07-4.07c0.37-0.37,0.37-0.98,0-1.36l-4.07-4.07c-0.37-0.37-0.37-0.98,0-1.36l0,0
		C63.7,12.09,63.95,12,64.19,12 M64.19,10C64.19,10,64.19,10,64.19,10c-0.79,0-1.53,0.31-2.09,0.87c-0.56,0.56-0.87,1.3-0.87,2.09
		c0,0.79,0.31,1.53,0.87,2.09l3.33,3.33l-3.33,3.33c-0.56,0.56-0.87,1.3-0.87,2.09c0,0.79,0.31,1.53,0.87,2.09
		c0.56,0.56,1.3,0.87,2.09,0.87c0.79,0,1.53-0.31,2.09-0.87l3.33-3.33l3.33,3.33c0.56,0.56,1.3,0.87,2.09,0.87s1.53-0.31,2.09-0.87
		c0.56-0.56,0.87-1.3,0.87-2.09c0-0.79-0.31-1.53-0.87-2.09l-3.33-3.33l3.33-3.33c0.56-0.56,0.87-1.3,0.87-2.09
		c0-0.79-0.31-1.53-0.87-2.09c-0.56-0.56-1.3-0.87-2.09-0.87s-1.53,0.31-2.09,0.87l-3.33,3.33l-3.33-3.33
		C65.73,10.31,64.98,10,64.19,10L64.19,10L64.19,10z"/>
</g>
</svg>
