<?xml version="1.0" encoding="utf-8"?>
<!-- Generator: Adobe Illustrator 23.0.4, SVG Export Plug-In . SVG Version: 6.00 Build 0)  -->
<svg version="1.1" id="Capa_1" xmlns="http://www.w3.org/2000/svg" xmlns:xlink="http://www.w3.org/1999/xlink" x="0px" y="0px"
	 viewBox="0 0 146 98" style="enable-background:new 0 0 146 98;" xml:space="preserve">
<style type="text/css">
	.st0{fill:#FFFFFF;}
	.st1{fill:#16318F;}
	.st2{fill:#FF9100;}
</style>
<g>
	<path class="st0" d="M132.36,98H13.64C6.11,98,0,91.89,0,84.36V13.64C0,6.11,6.11,0,13.64,0h118.73C139.89,0,146,6.11,146,13.64
		v70.73C146,91.89,139.89,98,132.36,98z"/>
	<g>
		<g>
			<polygon class="st1" points="55.16,64.86 60.71,32.06 69.7,32.06 64.15,64.86 			"/>
			<path class="st1" d="M96.16,32.91c-1.78-0.66-4.57-1.38-8.06-1.38c-8.89,0-15.15,4.45-15.2,10.82c-0.05,4.71,4.47,7.34,7.88,8.91
				c3.5,1.6,4.68,2.63,4.66,4.07c-0.02,2.2-2.8,3.2-5.38,3.2c-3.6,0-5.51-0.5-8.47-1.72l-1.16-0.52l-1.26,7.34
				c2.1,0.92,5.99,1.71,10.02,1.75c9.45,0,15.59-4.4,15.66-11.21c0.03-3.73-2.36-6.57-7.55-8.91c-3.14-1.52-5.07-2.53-5.05-4.07
				c0-1.36,1.63-2.82,5.15-2.82c2.94-0.05,5.07,0.59,6.73,1.26l0.8,0.38L96.16,32.91L96.16,32.91z"/>
			<path class="st1" d="M111.49,32.06c-2.15,0-3.71,0.66-4.66,2.79L93.51,64.86h9.52l1.85-5.03h11.38l1.06,5.03h8.46l-7.41-32.8
				L111.49,32.06L111.49,32.06L111.49,32.06z M107.41,53.28c0.74-1.89,3.58-9.17,3.58-9.17c-0.05,0.09,0.74-1.9,1.19-3.13l0.61,2.83
				c0,0,1.72,7.83,2.08,9.47L107.41,53.28L107.41,53.28z"/>
			<path class="st1" d="M38.76,54.55l-0.79-4.5c-1.64-5.24-6.73-10.91-12.44-13.75l7.95,28.57h9.52l14.28-32.8h-9.52L38.76,54.55z"
				/>
		</g>
		<g>
			<path class="st2" d="M15.75,32.06v0.53c11.28,2.71,19.12,9.57,22.22,17.46L34.7,34.86c-0.54-2.08-2.19-2.73-4.15-2.8L15.75,32.06
				L15.75,32.06z"/>
		</g>
	</g>
</g>
</svg>
